<?xml version="1.0" encoding="utf-8"?>
<!-- Generator: Adobe Illustrator 27.8.1, SVG Export Plug-In . SVG Version: 6.00 Build 0)  -->
<svg version="1.1" id="Layer_1" xmlns="http://www.w3.org/2000/svg" xmlns:xlink="http://www.w3.org/1999/xlink" x="0px" y="0px"
	 viewBox="0 0 1920 1080" style="enable-background:new 0 0 1920 1080;" xml:space="preserve">
<style type="text/css">
	.st0{clip-path:url(#SVGID_00000163033996730236376720000018182301068477171121_);}
	.st1{fill:none;stroke:#000000;stroke-width:2;stroke-linecap:round;stroke-linejoin:round;stroke-miterlimit:400;}
	.st2{fill:none;stroke:#3953A4;stroke-width:16;stroke-miterlimit:10;}
	.st3{fill:none;stroke:#D40011;stroke-width:16;stroke-miterlimit:10;}
	.st4{fill:#3355FF;}
	.st5{fill:#FF0000;}
	
		.st6{fill:url(#SVGID_00000165920038589789742510000009222222722358926269_);stroke:#000000;stroke-width:3;stroke-linejoin:round;stroke-miterlimit:400;}
	.st7{fill:none;stroke:#000000;stroke-miterlimit:400;}
	.st8{fill:url(#SVGID_00000109723734470432258310000008675232297849229473_);}
	.st9{fill:url(#SVGID_00000152242412725247864440000012894117062521117859_);stroke:#000000;stroke-width:3;}
	.st10{fill:none;stroke:#545C56;stroke-width:3;stroke-miterlimit:400;}
	.st11{fill:none;stroke:#545C56;stroke-width:3;stroke-miterlimit:400;stroke-dasharray:12.0206,6.0103;}
	.st12{font-family:'Helvetica';}
	.st13{font-size:36px;}
</style>
<g>
	<defs>
		
			<rect id="SVGID_1_" x="530.4" y="106.7" transform="matrix(0.7614 -0.6482 0.6482 0.7614 -16.3816 528.9291)" width="360" height="360"/>
	</defs>
	<clipPath id="SVGID_00000129171183358246187330000000165583658406436537_">
		<use xlink:href="#SVGID_1_"  style="overflow:visible;"/>
	</clipPath>
	
		<g id="image1" transform="translate(210.0,230.0) scale(100.0,-100.0)" style="clip-path:url(#SVGID_00000129171183358246187330000000165583658406436537_);">
		<g id="fieldlines1">
			<g id="fieldline1_1">
				<path class="st1" d="M5-0.6L5-0.6L5-0.6L5-0.6L5-0.6L5-0.6L5-0.6L5-0.6L5-0.6l0,0.1l0,0l0,0l0,0l0,0l0,0l0,0l0,0l0,0l0,0l0,0
					l0,0l0,0l0,0l0,0l0,0l0,0l0,0l0,0l0,0l0,0l0,0l0,0l0,0l0,0l0,0l0,0l0,0l0,0l0,0l0,0l0,0l0,0l0,0l0,0l0,0l0,0l0,0l0,0l0,0l0,0
					l0,0l0,0l0,0L5-0.6L5-0.6L5-0.6L5-0.6L5-0.6L5-0.6L5-0.6L5-0.6L5-0.6z"/>
				<g id="arrows1_1">
					<g transform="translate(-0.2717,0.0016) rotate(-76.79) scale(2.4)">
						<path id="arrow1" d="M4.8-0.4L4.8-0.4L4.8-0.4L4.8-0.4L4.8-0.4z"/>
					</g>
				</g>
			</g>
			<g id="fieldline1_2">
				<path class="st1" d="M5-0.6L5-0.6L5-0.6L5-0.6L5-0.6L5-0.6L5-0.6L5-0.6L5-0.6l0,0.1l0,0l0,0l0,0l0,0l0,0l0,0l0,0l0,0l0,0l0,0
					l0,0l0,0l0,0l0,0l0,0l0,0l0,0l0,0l0,0l0,0l0,0l0,0l0,0l0,0l0,0l0,0l0,0l0,0l0,0l0,0l0,0l0,0l0,0l0,0l0,0l0,0l0,0l0,0l0,0l0,0
					l0,0l0,0l0,0l0,0l0,0l0,0l0,0l0,0l0,0l0,0l0,0L5-0.6L5-0.6L5-0.6L5-0.6L5-0.6L5-0.6L5-0.6L5-0.6z"/>
				<g id="arrows1_2">
					<g transform="translate(-0.3470,0.0010) rotate(-79.49) scale(2.4)">
						<path id="arrow1_00000026121255791547730120000014527650854263104932_" d="M4.8-0.3L4.8-0.3L4.8-0.3L4.8-0.3L4.8-0.3z"/>
					</g>
				</g>
			</g>
			<g id="fieldline1_3">
				<path class="st1" d="M5-0.6L5-0.6L5-0.6L5-0.6L5-0.6L5-0.6L5-0.6L5-0.6l0,0.1l0,0l0,0l0,0l0,0l0,0l0,0l0,0l0,0l0,0l0,0l0,0l0,0
					l0,0l0,0l0,0l0,0l0,0l0,0l0,0l0,0l0,0l0,0l0,0l0,0l0,0l0,0l0,0l0,0l0,0l0,0l0,0l0,0l0,0l0,0l0,0l0,0l0,0l0,0l0,0l0,0l0,0l0,0
					l0,0l0,0l0,0l0,0l0,0l0,0l0,0l0,0l0,0l0,0l0,0l0,0l0,0l0,0l0,0l0,0l0,0l0,0l0,0l0,0L5-0.6L5-0.6L5-0.6L5-0.6L5-0.6L5-0.6L5-0.6
					L5-0.6z"/>
				<g id="arrows1_3">
					<g transform="translate(-0.4561,0.0006) rotate(-81.88) scale(2.4)">
						<path id="arrow1_00000050639790608215676290000007242156842587128477_" d="M4.7-0.2L4.7-0.2L4.7-0.2L4.7-0.2L4.7-0.2z"/>
					</g>
				</g>
			</g>
			<g id="fieldline1_4">
				<path class="st1" d="M5-0.6L5-0.6L5-0.6L5-0.6L5-0.6L5-0.6L5-0.6L5-0.6l0,0.1l0,0l0,0l0,0l0,0l0,0l0,0l0,0l0,0l0,0l0,0l0,0l0,0
					l0,0l0,0l0,0l0,0l0,0l0,0l0,0l0,0l0,0l0,0l0,0l0,0l0,0l0,0l0,0l0,0l0,0l0,0l0,0l0,0l0,0l0,0l0,0l0,0l0,0l0,0l0,0l0,0l0,0l0,0
					l0,0l0,0l0,0l0,0l0,0l0,0l0,0l0,0l0,0l0,0l0,0l0,0l0,0l0,0l0,0l0,0l0,0l0,0l0,0l0,0l0,0l0,0l0,0l0,0l0,0l0,0l0,0l0,0l0,0l0,0
					l0,0l0,0l0,0l0,0L5-0.6L5-0.6L5-0.6L5-0.6L5-0.6L5-0.6L5-0.6z"/>
				<g id="arrows1_4">
					<g transform="translate(-0.6235,0.0003) rotate(-83.98) scale(2.4)">
						<path id="arrow1_00000172435985982887632850000006228186003895650455_" d="M4.6-0.1L4.6-0.1L4.6-0.1L4.6-0.1L4.6-0.1z"/>
					</g>
				</g>
			</g>
			<g id="fieldline1_5">
				<path class="st1" d="M5-0.6L5-0.6L5-0.6L5-0.6L5-0.6L5-0.6L5-0.6l0.1,0.1l0,0l0,0l0,0l0,0l0,0l0,0l0,0l0,0l0,0l0,0l0,0l0,0l0,0
					l0,0l0,0l0,0l0,0l0,0l0,0l0,0l0,0l0,0l0,0l0,0l0,0l0,0l0,0l0,0l0,0l0,0l0,0l0,0l0,0l0,0l0,0l0,0l0,0l0,0l0,0l0,0l0,0l0,0l0,0
					l0,0l0,0l0,0l0,0l0,0l0,0l0,0l0,0l0,0l0,0l0,0l0,0l0,0l0,0l0,0l0,0l0,0l0,0l0,0l0,0l0,0l0,0l0,0l0,0l0,0l0,0l0,0l0,0l0,0l0,0
					l0,0l0,0l0,0l0,0l0,0l0,0l0,0l0,0l0,0l0,0l0,0l0,0l0,0l0,0l0,0l0,0l0,0l0,0l0,0l0,0l0,0l0,0L5-0.6L5-0.6L5-0.6L5-0.6L5-0.6
					L5-0.6L5-0.6z"/>
				<g id="arrows1_5">
					<g transform="translate(-0.9002,0.0002) rotate(-85.86) scale(2.4)">
						<path id="arrow1_00000042709440331451051190000004279502105638588294_" d="M4.4,0.1L4.4,0.1L4.4,0.1L4.4,0.1L4.4,0.1z"/>
					</g>
				</g>
			</g>
			<g id="fieldline1_6">
				<path class="st1" d="M5-0.6L5-0.6L5-0.6L5-0.6L5-0.6L5-0.6l0.1,0.1l0,0l0,0l0,0l0,0l0,0l0,0l0,0l0,0l0,0l0,0l0,0l0,0l0,0l0,0
					l0,0l0,0l0,0l0,0l0,0l0,0l0,0l0,0l0,0l0,0l0,0l0,0l0,0l0,0l0,0l0,0l0,0l0,0l0,0l0,0l0,0l0,0l0,0l0,0l0,0l0,0l0,0l0,0l0,0l0,0
					l0,0l0,0l0,0l0,0l0,0l0,0l0,0l0,0l0,0l0,0l0,0l0,0l0,0l0,0l0,0l0,0l0,0l0,0l0,0l0,0l0,0l0,0l0,0l0,0l0,0l0,0l0,0l0,0l0,0l0,0
					l0,0l0,0l0,0l0,0l0,0l0,0l0,0l0,0l0,0l0,0l0,0l0,0l0,0l0,0l0,0l0,0l0,0l0,0l0,0l0,0l0,0l0,0l0,0l0,0l0,0l0,0l0,0l0,0l0,0l0,0
					l0,0l0,0l0,0l0,0l0,0l0,0l0,0l0,0l0,0l0,0l0,0l0,0l0,0l0,0l0,0l0,0l0,0l0,0l0,0l0,0L5-0.6L5-0.6L5-0.6L5-0.6L5-0.6L5-0.6z"/>
				<g id="arrows1_6">
					<g transform="translate(-1.4087,0.0001) rotate(-87.27) scale(2.4)">
						<path id="arrow1_00000183247236844922944320000006380569513454803868_" d="M4.1,0.5L4.1,0.5L4.1,0.5L4.1,0.5L4.1,0.5z"/>
					</g>
				</g>
			</g>
			<g id="fieldline1_7">
				<path class="st1" d="M3.2,0.2L3.2,0.2L3.2,0.2l0-0.1l0,0l0,0l0,0l0,0l0,0l0,0l0,0l0,0l0,0l0,0l0,0l0,0l0,0l0,0l0,0l0,0l0,0l0,0
					l0,0l0,0l0,0l0,0l0,0l0,0l0,0l0,0l0,0l0,0l0,0l0,0l0,0l0,0l0,0l0,0l0,0l0,0l0,0l0,0l0,0l0,0l0,0l0,0l0,0l0,0l0,0l0,0l0,0l0,0
					l0,0l0,0l0,0l0,0l0,0l0,0l0,0l0,0l0,0l0,0l0,0l0,0l0,0l0,0l0,0l0,0l0,0l0,0l0,0l0,0l0,0l0,0l0,0l0,0l0,0l0,0l0,0l0,0l0,0l0,0
					l0,0l0,0l0,0l0,0l0,0l0,0l0,0l0,0l0,0l0,0l0,0l0,0l0,0l0,0l0,0l0,0l0,0l0,0l0,0l0,0l0,0l0,0l0,0l0,0l0,0l0,0l0,0l0,0l0,0l0,0
					l0,0l0,0l0,0"/>
				<g id="arrows1_7">
					<g transform="translate(-1.0464,-0.9299) rotate(13.13) scale(2.4)">
						<path id="arrow1_00000045581200983937270570000005234551441921799609_" d="M3.6-0.4L3.6-0.4L3.6-0.4L3.6-0.4L3.6-0.4z"/>
					</g>
					<g transform="translate(-1.0464,0.9299) rotate(168.53) scale(2.4)">
						<path id="arrow1_00000097491840745257859930000004091615441504139180_" d="M5,0.8L5,0.8L5,0.8L5,0.8L5,0.8z"/>
					</g>
				</g>
			</g>
			<g id="fieldline1_8">
				<path class="st1" d="M2.6-0.6L2.6-0.6l0.1,0l0.1,0l0.1,0l0.1,0l0.1,0l0.1,0l0.1,0l0.1,0l0.1,0l0.1,0l0.1,0l0.1,0l0.1,0l0.1,0
					l0.1,0l0.1,0l0.1,0l0.1,0l0.1,0l0.1,0l0.1,0l0.1,0l0.1,0l0.1,0l0.1,0l0.1,0l0.1,0l0.1,0l0.1,0l0.1,0l0.1,0l0,0l0,0l0,0l0,0l0,0
					l0,0l0,0l0,0l0,0l0,0l0,0l0,0l0,0l0,0l0,0l0,0l0,0l0,0l0,0l0,0l0,0l0,0l0,0l0,0l0,0l0,0l0,0l0,0l0,0.1l0,0.1l0,0.1l0,0.1l0,0.1
					l0,0.1l0,0.1l0,0.1l0,0.1l0,0.1l0,0.1l0,0.1l0,0.1l0,0.1l0,0.1l0,0.1l0,0.1l0,0.1l0,0.1l0,0.1l0,0.1l0,0.1l0,0.1l0,0.1l0,0.1
					l0,0.1l0,0.1l0,0.1l0,0.1l0,0.1"/>
				<g id="arrows1_8">
					<g transform="translate(-0.6977,-1.2137) rotate(44.50) scale(2.4)">
						<path id="arrow1_00000176763028956969149670000017430741733423048594_" d="M3.6-0.8L3.6-0.8L3.6-0.8L3.6-0.8L3.6-0.8z"/>
					</g>
					<g transform="translate(-0.6977,1.2137) rotate(136.25) scale(2.4)">
						<path id="arrow1_00000109736803579049816270000013699532059406027709_" d="M5.5,0.8L5.5,0.8L5.5,0.8L5.5,0.8L5.5,0.8z"/>
					</g>
				</g>
			</g>
			<g id="fieldline1_9">
				<path class="st1" d="M3.3-1.3L3.3-1.3l0.2,0.1l0.1,0l0.1,0l0.1,0l0.1,0l0.1,0l0.1,0l0.1,0l0.1,0l0.1,0l0.1,0l0.1,0l0.1,0l0.1,0
					l0.1,0l0.1,0l0.1,0l0.1,0l0.1,0l0,0l0,0l0,0l0,0l0,0l0,0l0,0l0,0l0,0l0,0l0,0l0,0l0,0.1l0,0.1l0,0.1l0,0.1l0,0.1l0,0.1l0,0.1
					l0,0.1l0,0.1l0,0.1l0,0.1l0,0.1l0,0.1l0,0.1l0,0.1l0,0.1l0,0.1l0,0.1L6,1"/>
				<g id="arrows1_9">
					<g transform="translate(-0.3489,-1.3558) rotate(68.45) scale(2.4)">
						<path id="arrow1_00000065044454290528242170000015057938787452374174_" d="M3.8-1.2L3.8-1.2L3.8-1.2L3.8-1.2L3.8-1.2z"/>
					</g>
					<g transform="translate(-0.3490,1.3558) rotate(111.93) scale(2.4)">
						<path id="arrow1_00000086658985453900166710000003743029795674445186_" d="M5.8,0.6L5.8,0.6L5.8,0.6L5.8,0.6L5.8,0.6z"/>
					</g>
				</g>
			</g>
			<g id="fieldline1_10">
				<path class="st1" d="M3.6-1.7l0.7,0.6L5-0.6L5.7,0l0.7,0.6"/>
				<g id="arrows1_10">
					<g transform="translate(0.0000,-1.4000) rotate(90.00) scale(2.4)">
						<path id="arrow1_00000067956307227298539070000001653893491118418305_" d="M3.9-1.5L3.9-1.5L3.9-1.5L3.9-1.5L3.9-1.5z"/>
					</g>
					<g transform="translate(-0.0000,1.4000) rotate(90.00) scale(2.4)">
						<path id="arrow1_00000035506671852980573330000016508172253430462372_" d="M6.1,0.3L6.1,0.3L6.1,0.3L6.1,0.3L6.1,0.3z"/>
					</g>
				</g>
			</g>
			<g id="fieldline1_11">
				<path class="st1" d="M4-2.2L4-2.2L4.1-2l0,0.1l0,0.1l0,0.1l0,0.1l0,0.1l0,0.1l0,0.1l0,0.1l0,0.1l0,0.1l0,0.1l0,0.1l0,0.1l0,0.1
					l0,0.1l0,0.1l0,0.1l0,0l0,0l0,0l0,0l0,0l0,0l0,0l0,0l0,0l0,0l0,0l0,0l0.1,0l0.1,0l0.1,0l0.1,0l0.1,0l0.1,0l0.1,0l0.1,0l0.1,0
					l0.1,0l0.1,0L6,0l0.1,0l0.1,0l0.1,0l0.1,0l0.1,0l0.1,0l0.1,0l0.1,0"/>
				<g id="arrows1_11">
					<g transform="translate(0.3489,-1.3558) rotate(111.55) scale(2.4)">
						<path id="arrow1_00000139985429406118611430000009806999157758123194_" d="M4.2-1.7L4.2-1.7L4.2-1.7L4.2-1.7L4.2-1.7z"/>
					</g>
					<g transform="translate(0.3490,1.3558) rotate(68.07) scale(2.4)">
						<path id="arrow1_00000181079453386536230350000008484270000757596337_" d="M6.3,0L6.3,0L6.3,0L6.3,0L6.3,0z"/>
					</g>
				</g>
			</g>
			<g id="fieldline1_12">
				<path class="st1" d="M4.6-2.9L4.6-2.9l0,0.1l0,0.1l0,0.1l0,0.1l0,0.1l0,0.1l0,0.1l0,0.1l0,0.1l0,0.1l0,0.1l0,0.1l0,0.1l0,0.1
					l0,0.1l0,0.1l0,0.1l0,0.1l0,0.1l0,0.1l0,0.1l0,0.1l0,0.1l0,0.1l0,0.1l0,0.1l0,0.1l0,0.1l0,0.1l0,0l0,0l0,0l0,0l0,0l0,0l0,0l0,0
					l0,0l0,0l0,0l0,0l0,0l0,0l0,0l0,0l0,0l0,0l0,0l0,0l0,0l0,0l0,0l0,0l0,0l0,0l0,0l0,0l0.1,0l0.1,0l0.1,0l0.1,0l0.1,0l0.1,0l0.1,0
					l0.1,0l0.1,0l0.1,0l0.1,0l0.1,0l0.1,0l0.1,0l0.1,0l0.1,0l0.1,0l0.1,0l0.1,0l0.1,0l0.1,0l0.1,0l0.1,0l0.1,0l0.1,0l0.1,0l0.1,0
					l0.1,0l0.1,0l0.1,0l0.1,0l0.1,0"/>
				<g id="arrows1_12">
					<g transform="translate(0.6977,-1.2137) rotate(135.50) scale(2.4)">
						<path id="arrow1_00000047740900906711541060000012434524843491158694_" d="M4.5-1.9L4.5-1.9L4.5-1.9L4.5-1.9L4.5-1.9z"/>
					</g>
					<g transform="translate(0.6977,1.2137) rotate(43.75) scale(2.4)">
						<path id="arrow1_00000109722425564737012220000014254844774883649959_" d="M6.4-0.3L6.4-0.3L6.4-0.3L6.4-0.3L6.4-0.3z"/>
					</g>
				</g>
			</g>
			<g id="fieldline1_13">
				<path class="st1" d="M5.5-2.5L5.5-2.5L5.5-2.5L5.4-2.5l0,0l0,0l0,0l0,0l0,0l0,0l0,0l0,0l0,0l0,0l0,0l0,0l0,0l0,0l0,0l0,0l0,0
					l0,0l0,0l0,0l0,0l0,0l0,0l0,0l0,0l0,0l0,0l0,0l0,0l0,0l0,0l0,0l0,0l0,0l0,0l0,0l0,0l0,0l0,0l0,0l0,0l0,0l0,0l0,0l0,0l0,0l0,0
					l0,0l0,0l0,0l0,0l0,0l0,0l0,0l0,0l0,0l0,0l0,0l0,0l0,0l0,0l0,0l0,0l0,0l0,0l0,0l0,0l0,0l0,0l0,0l0,0l0,0l0,0l0,0l0,0l0,0l0,0
					l0,0l0,0l0,0l0,0l0,0l0,0l0,0l0,0l0,0l0,0l0,0l0,0l0,0l0,0l0,0l0,0l0,0l0,0l0,0l0,0l0,0l0,0l0,0l0,0l0,0l0,0l0,0l0,0l0,0l0,0
					l0,0l0,0l0,0l0,0"/>
				<g id="arrows1_13">
					<g transform="translate(1.0464,-0.9299) rotate(166.87) scale(2.4)">
						<path id="arrow1_00000102521056152171410370000005024415129234999947_" d="M5-2L5-2L5-2L5-2L5-2z"/>
					</g>
					<g transform="translate(1.0464,0.9299) rotate(11.47) scale(2.4)">
						<path id="arrow1_00000049900261510003683180000017504683197763234742_" d="M6.4-0.8L6.4-0.8L6.4-0.8L6.4-0.8L6.4-0.8z"/>
					</g>
				</g>
			</g>
			<g id="fieldline1_14">
				<path class="st1" d="M5-0.6L5-0.6L5-0.6L5-0.6L5-0.6L5-0.6l0.1,0l0,0l0,0l0,0l0,0l0,0l0,0l0,0l0,0l0,0l0,0l0,0l0,0l0,0l0,0l0,0
					l0,0l0,0l0,0l0,0l0,0l0,0l0,0l0,0l0,0l0,0l0,0l0,0l0,0l0,0l0,0l0,0l0,0l0,0l0,0l0,0l0,0l0,0l0,0l0,0l0,0l0,0l0,0l0,0l0,0l0,0
					l0,0l0,0l0,0l0,0l0,0l0,0l0,0l0,0l0,0l0,0l0,0l0,0l0,0l0,0l0,0l0,0l0,0l0,0l0,0l0,0l0,0l0,0l0,0l0,0l0,0l0,0l0,0l0,0l0,0l0,0
					l0,0l0,0l0,0l0,0l0,0l0,0l0,0l0,0l0,0l0,0l0,0l0,0l0,0l0,0l0,0l0,0l0,0l0,0l0,0l0,0l0,0l0,0l0,0l0,0l0,0l0,0l0,0l0,0l0,0l0,0
					l0,0l0,0l0,0l0,0l0,0l0,0l0,0l0,0l0,0l0,0l0,0l0,0l0,0l0,0l0,0l0,0l0,0l0,0L5-0.6L5-0.6L5-0.6L5-0.6L5-0.6L5-0.6L5-0.6z"/>
				<g id="arrows1_14">
					<g transform="translate(1.4087,0.0001) rotate(-92.73) scale(2.4)">
						<path id="arrow1_00000157988095031436254390000004524503292500442039_" d="M5.9-1.6L5.9-1.6L5.9-1.6L5.9-1.6L5.9-1.6z"/>
					</g>
				</g>
			</g>
			<g id="fieldline1_15">
				<path class="st1" d="M5-0.6L5-0.6L5-0.6L5-0.6L5-0.6L5-0.6L5-0.6l0.1,0l0,0l0,0l0,0l0,0l0,0l0,0l0,0l0,0l0,0l0,0l0,0l0,0l0,0
					l0,0l0,0l0,0l0,0l0,0l0,0l0,0l0,0l0,0l0,0l0,0l0,0l0,0l0,0l0,0l0,0l0,0l0,0l0,0l0,0l0,0l0,0l0,0l0,0l0,0l0,0l0,0l0,0l0,0l0,0
					l0,0l0,0l0,0l0,0l0,0l0,0l0,0l0,0l0,0l0,0l0,0l0,0l0,0l0,0l0,0l0,0l0,0l0,0l0,0l0,0l0,0l0,0l0,0l0,0l0,0l0,0l0,0l0,0l0,0l0,0
					l0,0l0,0l0,0l0,0l0,0l0,0l0,0l0,0l0,0l0,0l0,0l0,0l0,0l0,0l0,0l0,0l0,0l0,0l0,0l0,0l0,0l0,0L5-0.6L5-0.6L5-0.6L5-0.6L5-0.6
					L5-0.6L5-0.6z"/>
				<g id="arrows1_15">
					<g transform="translate(0.9002,0.0002) rotate(-94.14) scale(2.4)">
						<path id="arrow1_00000079487416540148268990000008618509742172230789_" d="M5.6-1.3L5.6-1.3L5.6-1.3L5.6-1.3L5.6-1.3z"/>
					</g>
				</g>
			</g>
			<g id="fieldline1_16">
				<path class="st1" d="M5-0.6L5-0.6L5-0.6L5-0.6L5-0.6L5-0.6L5-0.6l0.1,0l0,0l0,0l0,0l0,0l0,0l0,0l0,0l0,0l0,0l0,0l0,0l0,0l0,0
					l0,0l0,0l0,0l0,0l0,0l0,0l0,0l0,0l0,0l0,0l0,0l0,0l0,0l0,0l0,0l0,0l0,0l0,0l0,0l0,0l0,0l0,0l0,0l0,0l0,0l0,0l0,0l0,0l0,0l0,0
					l0,0l0,0l0,0l0,0l0,0l0,0l0,0l0,0l0,0l0,0l0,0l0,0l0,0l0,0l0,0l0,0l0,0l0,0l0,0l0,0l0,0l0,0l0,0l0,0l0,0l0,0l0,0l0,0l0,0l0,0
					l0,0l0,0l0,0L5-0.6L5-0.6L5-0.6L5-0.6L5-0.6L5-0.6L5-0.6L5-0.6z"/>
				<g id="arrows1_16">
					<g transform="translate(0.6235,0.0003) rotate(-96.02) scale(2.4)">
						<path id="arrow1_00000014630525847634588150000015003300456423874733_" d="M5.4-1L5.4-1L5.4-1L5.4-1L5.4-1z"/>
					</g>
				</g>
			</g>
			<g id="fieldline1_17">
				<path class="st1" d="M5-0.6L5-0.6L5-0.6L5-0.6L5-0.6L5-0.6L5-0.6L5-0.6l0.1,0l0,0l0,0l0,0l0,0l0,0l0,0l0,0l0,0l0,0l0,0l0,0l0,0
					l0,0l0,0l0,0l0,0l0,0l0,0l0,0l0,0l0,0l0,0l0,0l0,0l0,0l0,0l0,0l0,0l0,0l0,0l0,0l0,0l0,0l0,0l0,0l0,0l0,0l0,0l0,0l0,0l0,0l0,0
					l0,0l0,0l0,0l0,0l0,0l0,0l0,0l0,0l0,0l0,0l0,0l0,0l0,0l0,0l0,0l0,0l0,0l0,0l0,0l0,0L5-0.6L5-0.6L5-0.6L5-0.6L5-0.6L5-0.6L5-0.6
					L5-0.6z"/>
				<g id="arrows1_17">
					<g transform="translate(0.4561,0.0006) rotate(-98.12) scale(2.4)">
						<path id="arrow1_00000014629136115336653960000008838754710118935190_" d="M5.3-0.9L5.3-0.9L5.3-0.9L5.3-0.9L5.3-0.9z"/>
					</g>
				</g>
			</g>
			<g id="fieldline1_18">
				<path class="st1" d="M5-0.6L5-0.6L5-0.6L5-0.6L5-0.6L5-0.6L5-0.6L5-0.6l0.1,0l0,0l0,0l0,0l0,0l0,0l0,0l0,0l0,0l0,0l0,0l0,0l0,0
					l0,0l0,0l0,0l0,0l0,0l0,0l0,0l0,0l0,0l0,0l0,0l0,0l0,0l0,0l0,0l0,0l0,0l0,0l0,0l0,0l0,0l0,0l0,0l0,0l0,0l0,0l0,0l0,0l0,0l0,0
					l0,0l0,0l0,0l0,0l0,0l0,0l0,0l0,0l0,0L5-0.6L5-0.6L5-0.6L5-0.6L5-0.6L5-0.6L5-0.6L5-0.6L5-0.6z"/>
				<g id="arrows1_18">
					<g transform="translate(0.3470,0.0010) rotate(-100.51) scale(2.4)">
						<path id="arrow1_00000137840659888674630950000012419691048091057298_" d="M5.2-0.8L5.2-0.8L5.2-0.8L5.2-0.8L5.2-0.8z"/>
					</g>
				</g>
			</g>
			<g id="fieldline1_19">
				<path class="st1" d="M5-0.6L5-0.6L5-0.6L5-0.6L5-0.6L5-0.6L5-0.6L5-0.6L5-0.6l0.1,0l0,0l0,0l0,0l0,0l0,0l0,0l0,0l0,0l0,0l0,0
					l0,0l0,0l0,0l0,0l0,0l0,0l0,0l0,0l0,0l0,0l0,0l0,0l0,0l0,0l0,0l0,0l0,0l0,0l0,0l0,0l0,0l0,0l0,0l0,0l0,0l0,0l0,0l0,0l0,0l0,0
					l0,0l0,0l0,0L5-0.6L5-0.6L5-0.6L5-0.6L5-0.6L5-0.6L5-0.6L5-0.6L5-0.6z"/>
				<g id="arrows1_19">
					<g transform="translate(0.2717,0.0016) rotate(-103.21) scale(2.4)">
						<path id="arrow1_00000036234566660376489020000017576305762805524144_" d="M5.2-0.8L5.2-0.8L5.2-0.8L5.2-0.8L5.2-0.8z"/>
					</g>
				</g>
			</g>
		</g>
	</g>
</g>
<path class="st2" d="M1041,675.8c-0.6,6.7-4.2,12.6-9,15.7c-9.2,6-13.4,8.1-13.4,8.1s20.5,15.5,1.8,31.7
	c-18.7,16.1-15.1,24.4-13.6,34.9c1.5,10.5,10.8,25.6,4.2,39.4c-6.6,13.8-19.6,25.3-54,30.1c0,0-78.2-4.1-98,0.3
	c-17,2.9-18.2,3.7-18.2,3.7s-24.6,13.1-31.7,54.6c-7.1,41.5-10.1,58.5-10.1,58.5s0.4,39.9,94.6,92.6H381.3
	c0,0,88.3-119.3,106.5-216.2c0,0,13.4-59.8,9-84c-4.4-24.2-2-28.4-32.2-71.1c-30.2-42.7-84.8-116.4-92.1-137.1
	c-1.2-2.5-6.3-13.6-6.3-13.6s-50.8-118.9-4.4-245.9c32.8-89.7,116.8-141.2,199.7-163.6"/>
<path class="st3" d="M561.6,113.7c34.4-9.3,68.7-13.6,99-13.6c103.4,0.1,241.9,35.2,317.6,193.5c0,0,38.6,88.5,35.2,136.1
	c0,0-32.2,27.5-3.3,59.4c27.3,30.1,74.4,95.7,74.4,95.7s8.8,18.5-8.7,27.1c-17.5,8.7-31.2,8.6-41.9,17.1c-10.7,8.5-13.8,15.9-0.8,28
	c6.2,5.8,8.4,12.6,7.9,18.7"/>
<g id="symbols3">
	<g id="polarized_sheet">
		<rect x="1356" y="93.1" class="st4" width="248.1" height="24.8"/>
		<rect x="1356" y="93.1" class="st5" width="248.1" height="12.4"/>
		
			<linearGradient id="SVGID_00000116210650067162111780000009093638878544515462_" gradientUnits="userSpaceOnUse" x1="14.9304" y1="1075.5454" x2="12.4499" y2="1075.5454" gradientTransform="matrix(100 0 0 100 111 -107449)">
			<stop  offset="0" style="stop-color:#000000;stop-opacity:0.3"/>
			<stop  offset="0.3" style="stop-color:#999999;stop-opacity:0.2"/>
			<stop  offset="0.8" style="stop-color:#FFFFFF;stop-opacity:0.25"/>
			<stop  offset="1" style="stop-color:#FFFFFF;stop-opacity:0.65"/>
		</linearGradient>
		
			<rect x="1356" y="93.1" style="fill:url(#SVGID_00000116210650067162111780000009093638878544515462_);stroke:#000000;stroke-width:3;stroke-linejoin:round;stroke-miterlimit:400;" width="248.1" height="24.8"/>
		<path class="st7" d="M1368.4,100.4h6.2 M1371.5,103.5v-6.2 M1382.9,100.4h6.2 M1386,103.5v-6.2 M1397.3,100.4h6.2 M1400.4,103.5
			v-6.2 M1411.8,100.4h6.2 M1414.9,103.5v-6.2 M1426.3,100.4h6.2 M1429.4,103.5v-6.2 M1440.7,100.4h6.2 M1443.8,103.5v-6.2
			 M1455.2,100.4h6.2 M1458.3,103.5v-6.2 M1469.7,100.4h6.2 M1472.8,103.5v-6.2 M1484.2,100.4h6.2 M1487.3,103.5v-6.2 M1498.6,100.4
			h6.2 M1501.7,103.5v-6.2 M1513.1,100.4h6.2 M1516.2,103.5v-6.2 M1527.6,100.4h6.2 M1530.7,103.5v-6.2 M1542,100.4h6.2
			 M1545.1,103.5v-6.2 M1556.5,100.4h6.2 M1559.6,103.5v-6.2 M1571,100.4h6.2 M1574.1,103.5v-6.2 M1585.4,100.4h6.2 M1588.5,103.5
			v-6.2"/>
		<path class="st7" d="M1368.4,110.7h6.2 M1382.9,110.7h6.2 M1397.3,110.7h6.2 M1411.8,110.7h6.2 M1426.3,110.7h6.2 M1440.7,110.7
			h6.2 M1455.2,110.7h6.2 M1469.7,110.7h6.2 M1484.2,110.7h6.2 M1498.6,110.7h6.2 M1513.1,110.7h6.2 M1527.6,110.7h6.2 M1542,110.7
			h6.2 M1556.5,110.7h6.2 M1571,110.7h6.2 M1585.4,110.7h6.2"/>
	</g>
</g>
<g>
	<g id="symbols1">
		<g id="dipole_symbol" transform="scale(0.01,0.01)">
			
				<linearGradient id="SVGID_00000034062763812426851790000000310766987073973635_" gradientUnits="userSpaceOnUse" x1="1567.745" y1="108569.4844" x2="1567.745" y2="108568.4844" gradientTransform="matrix(27.0649 32.1168 -32.1168 27.0649 3513757.75 -2958688.5)">
				<stop  offset="0" style="stop-color:#3355FF"/>
				<stop  offset="0.5" style="stop-color:#9944AA"/>
				<stop  offset="1" style="stop-color:#FF0000"/>
			</linearGradient>
			<circle style="fill:url(#SVGID_00000034062763812426851790000000310766987073973635_);" cx="70887.6" cy="28733.1" r="2100"/>
			
				<radialGradient id="SVGID_00000111151946192657231540000010789268809125824902_" cx="1582.745" cy="108499.4844" r="0.75" gradientTransform="matrix(27.0649 32.1168 -32.1168 27.0649 3513757.75 -2958688.5)" gradientUnits="userSpaceOnUse">
				<stop  offset="0" style="stop-color:#FFFFFF;stop-opacity:0.7"/>
				<stop  offset="0.1" style="stop-color:#FFFFFF;stop-opacity:0.5"/>
				<stop  offset="0.6" style="stop-color:#FFFFFF;stop-opacity:0"/>
				<stop  offset="0.6" style="stop-color:#000000;stop-opacity:0"/>
				<stop  offset="0.75" style="stop-color:#000000;stop-opacity:5.000000e-02"/>
				<stop  offset="0.85" style="stop-color:#000000;stop-opacity:0.15"/>
				<stop  offset="1" style="stop-color:#000000;stop-opacity:0.5"/>
			</radialGradient>
			
				<circle style="fill:url(#SVGID_00000111151946192657231540000010789268809125824902_);stroke:#000000;stroke-width:3;" cx="70887.6" cy="28733.1" r="2100"/>
			<path d="M70163.3,29735.8l917.6-773.3l580,688.2l373.7-1884.2l-1920.3,49l580,688.2l-917.6,773.3L70163.3,29735.8z"/>
		</g>
	</g>
</g>
<g>
	<g>
		<line class="st10" x1="1039.9" y1="675.9" x2="1036" y2="671.4"/>
		<line class="st11" x1="1032.1" y1="666.8" x2="566.5" y2="119.9"/>
		<line class="st10" x1="564.6" y1="117.6" x2="560.7" y2="113"/>
	</g>
</g>
<text transform="matrix(1 0 0 1 503.2276 22.1613)" class="st5 st12 st13">+</text>
<text transform="matrix(1 0 0 1 577.0688 22.1614)" class="st5 st12 st13">+</text>
</svg>
