<?xml version='1.0' encoding='utf-8'?>
<svg xmlns="http://www.w3.org/2000/svg" xmlns:xlink="http://www.w3.org/1999/xlink" version="1.1" baseProfile="full" width="1600" height="1600">
  <title>ElectricDipole</title>
  <desc>ElectricDipole
created with VectorFieldPlot 1.3
http://commons.wikimedia.org/wiki/User:Geek3/VectorFieldPlot
rights: GNU Free Documentation license,
        Creative Commons Attribution ShareAlike license
  </desc>
  <defs>
    <radialGradient id="white_spot" cx="0.65" cy="0.7" r="0.75">
      <stop stop-color="#ffffff" offset="0" stop-opacity="0.7"/>
      <stop stop-color="#ffffff" offset="0.1" stop-opacity="0.5"/>
      <stop stop-color="#ffffff" offset="0.6" stop-opacity="0"/>
      <stop stop-color="#000000" offset="0.6" stop-opacity="0"/>
      <stop stop-color="#000000" offset="0.75" stop-opacity="0.05"/>
      <stop stop-color="#000000" offset="0.85" stop-opacity="0.15"/>
      <stop stop-color="#000000" offset="1" stop-opacity="0.5"/>
    </radialGradient>
    <path id="arrow1" stroke="none" fill="#000000" transform="scale(0.01)" d="M 0.3,0 L -2.2,2.25 L 3.8,0 L -2.2,-2.25 L 0.3,0 Z"/>
  </defs>
  <rect id="background" x="0" y="0" width="1600" height="1600" fill="#ffffff"/>
  <g id="image" transform="translate(800.0,800.0) scale(100.0,-100.0)">
    <g id="fieldlines" fill="none" stroke="#000000" stroke-width="0.02" stroke-linejoin="round" stroke-linecap="round">
      <g id="fieldline1">
        <path d="M 1.0000,0.0000 L 8.0100,0.0000"/>
        <g id="arrows1">
          <use xlink:href="#arrow1" transform="translate(4.5050,0.0000) rotate(0.00) scale(2.0)"/>
        </g>
      </g>
      <g id="fieldline2">
        <path d="M 1.0000,0.0000 L 1.2835,0.0982 L 1.4898,0.1721 L 1.6792,0.2426 L 1.8613,0.3129 L 2.0397,0.3845 L 2.2160,0.4580 L 2.3911,0.5336 L 2.5656,0.6118 L 2.7399,0.6925 L 2.9140,0.7760 L 3.0881,0.8623 L 3.2622,0.9514 L 3.4365,1.0434 L 3.6108,1.1382 L 3.7851,1.2359 L 3.9595,1.3366 L 4.1339,1.4401 L 4.3081,1.5465 L 4.4823,1.6557 L 4.6562,1.7679 L 4.8300,1.8828 L 5.0034,2.0006 L 5.1765,2.1211 L 5.3491,2.2445 L 5.5213,2.3706 L 5.6930,2.4994 L 5.8641,2.6309 L 6.0345,2.7651 L 6.2042,2.9020 L 6.3732,3.0414 L 6.5414,3.1835 L 6.7087,3.3281 L 6.8751,3.4753 L 7.0405,3.6249 L 7.2049,3.7770 L 7.3682,3.9315 L 7.5305,4.0885 L 7.6915,4.2478 L 7.8514,4.4094 L 8.0100,4.5733 M -8.0100,4.5733 L -7.8514,4.4094 L -7.6915,4.2478 L -7.5305,4.0885 L -7.3682,3.9315 L -7.2049,3.7770 L -7.0405,3.6249 L -6.8751,3.4753 L -6.7087,3.3281 L -6.5414,3.1835 L -6.3732,3.0415 L -6.2042,2.9020 L -6.0345,2.7651 L -5.8641,2.6309 L -5.6930,2.4994 L -5.5213,2.3706 L -5.3491,2.2445 L -5.1765,2.1211 L -5.0034,2.0006 L -4.8300,1.8828 L -4.6562,1.7679 L -4.4823,1.6557 L -4.3081,1.5465 L -4.1339,1.4401 L -3.9595,1.3366 L -3.7852,1.2360 L -3.6108,1.1382 L -3.4365,1.0434 L -3.2623,0.9514 L -3.0881,0.8623 L -2.9140,0.7760 L -2.7399,0.6925 L -2.5656,0.6118 L -2.3911,0.5336 L -2.2160,0.4579 L -2.0397,0.3845 L -1.8613,0.3129 L -1.6792,0.2426 L -1.4898,0.1721 L -1.2835,0.0982 L -1.0000,0.0000"/>
        <g id="arrows2">
          <use xlink:href="#arrow1" transform="translate(4.7851,1.8531) rotate(33.49) scale(2.0)"/>
          <use xlink:href="#arrow1" transform="translate(-4.7851,1.8531) rotate(-33.49) scale(2.0)"/>
        </g>
      </g>
      <g id="fieldline3">
        <path d="M 1.0000,0.0000 L 1.1845,0.1446 L 1.3120,0.2475 L 1.4248,0.3415 L 1.5299,0.4323 L 1.6299,0.5220 L 1.7261,0.6115 L 1.8191,0.7014 L 1.9094,0.7923 L 1.9973,0.8842 L 2.0830,0.9773 L 2.1665,1.0718 L 2.2479,1.1677 L 2.3272,1.2651 L 2.4045,1.3638 L 2.4798,1.4640 L 2.5530,1.5656 L 2.6242,1.6687 L 2.6932,1.7731 L 2.7601,1.8788 L 2.8249,1.9858 L 2.8876,2.0940 L 2.9480,2.2034 L 3.0062,2.3140 L 3.0622,2.4256 L 3.1158,2.5382 L 3.1672,2.6518 L 3.2162,2.7663 L 3.2629,2.8816 L 3.3072,2.9976 L 3.3491,3.1144 L 3.3885,3.2318 L 3.4255,3.3498 L 3.4601,3.4682 L 3.4922,3.5871 L 3.5218,3.7063 L 3.5489,3.8258 L 3.5735,3.9456 L 3.5956,4.0655 L 3.6152,4.1854 L 3.6322,4.3054 L 3.6467,4.4253 L 3.6587,4.5451 L 3.6682,4.6647 L 3.6752,4.7840 L 3.6796,4.9030 L 3.6816,5.0216 L 3.6810,5.1397 L 3.6779,5.2573 L 3.6724,5.3743 L 3.6644,5.4906 L 3.6540,5.6062 L 3.6411,5.7210 L 3.6259,5.8350 L 3.6082,5.9480 L 3.5882,6.0600 L 3.5658,6.1710 L 3.5412,6.2809 L 3.5142,6.3896 L 3.4850,6.4971 L 3.4535,6.6034 L 3.4198,6.7083 L 3.3840,6.8118 L 3.3460,6.9139 L 3.3059,7.0146 L 3.2638,7.1136 L 3.2196,7.2111 L 3.1735,7.3070 L 3.1253,7.4012 L 3.0753,7.4937 L 3.0234,7.5844 L 2.9697,7.6733 L 2.9141,7.7603 L 2.8569,7.8455 L 2.7979,7.9287 L 2.7372,8.0100 M -2.7372,8.0100 L -2.7979,7.9287 L -2.8569,7.8455 L -2.9141,7.7603 L -2.9697,7.6733 L -3.0234,7.5844 L -3.0753,7.4937 L -3.1253,7.4012 L -3.1735,7.3070 L -3.2196,7.2111 L -3.2638,7.1136 L -3.3059,7.0146 L -3.3460,6.9139 L -3.3840,6.8118 L -3.4198,6.7083 L -3.4535,6.6034 L -3.4850,6.4971 L -3.5142,6.3896 L -3.5412,6.2809 L -3.5658,6.1710 L -3.5882,6.0600 L -3.6082,5.9480 L -3.6259,5.8350 L -3.6411,5.7210 L -3.6540,5.6062 L -3.6644,5.4906 L -3.6724,5.3743 L -3.6779,5.2573 L -3.6810,5.1397 L -3.6816,5.0216 L -3.6796,4.9030 L -3.6752,4.7840 L -3.6682,4.6647 L -3.6587,4.5451 L -3.6467,4.4253 L -3.6322,4.3054 L -3.6152,4.1854 L -3.5956,4.0655 L -3.5735,3.9456 L -3.5489,3.8258 L -3.5218,3.7063 L -3.4922,3.5871 L -3.4601,3.4682 L -3.4255,3.3498 L -3.3885,3.2318 L -3.3491,3.1144 L -3.3072,2.9976 L -3.2629,2.8816 L -3.2162,2.7663 L -3.1672,2.6518 L -3.1158,2.5382 L -3.0622,2.4256 L -3.0062,2.3140 L -2.9480,2.2034 L -2.8876,2.0940 L -2.8249,1.9858 L -2.7601,1.8788 L -2.6932,1.7731 L -2.6242,1.6687 L -2.5530,1.5657 L -2.4798,1.4640 L -2.4046,1.3638 L -2.3272,1.2651 L -2.2479,1.1677 L -2.1665,1.0718 L -2.0830,0.9773 L -1.9973,0.8842 L -1.9094,0.7923 L -1.8191,0.7014 L -1.7261,0.6115 L -1.6299,0.5220 L -1.5299,0.4323 L -1.4248,0.3415 L -1.3120,0.2475 L -1.1845,0.1446 L -1.0000,0.0000"/>
        <g id="arrows3">
          <use xlink:href="#arrow1" transform="translate(3.5145,3.6775) rotate(76.38) scale(2.0)"/>
          <use xlink:href="#arrow1" transform="translate(-3.5146,3.6775) rotate(-76.06) scale(2.0)"/>
        </g>
      </g>
      <g id="fieldline4">
        <path d="M 1.0000,0.0000 L 1.1128,0.1742 L 1.1866,0.2922 L 1.2497,0.3977 L 1.3061,0.4969 L 1.3576,0.5924 L 1.4051,0.6858 L 1.4491,0.7778 L 1.4899,0.8689 L 1.5276,0.9594 L 1.5624,1.0494 L 1.5943,1.1391 L 1.6235,1.2286 L 1.6500,1.3179 L 1.6738,1.4070 L 1.6949,1.4959 L 1.7133,1.5845 L 1.7291,1.6728 L 1.7422,1.7609 L 1.7527,1.8485 L 1.7606,1.9356 L 1.7659,2.0222 L 1.7687,2.1083 L 1.7689,2.1936 L 1.7665,2.2782 L 1.7617,2.3620 L 1.7543,2.4449 L 1.7445,2.5268 L 1.7323,2.6076 L 1.7177,2.6873 L 1.7007,2.7658 L 1.6814,2.8430 L 1.6599,2.9188 L 1.6361,2.9932 L 1.6101,3.0661 L 1.5820,3.1374 L 1.5519,3.2071 L 1.5197,3.2751 L 1.4856,3.3412 L 1.4495,3.4056 L 1.4116,3.4680 L 1.3720,3.5285 L 1.3306,3.5871 L 1.2876,3.6435 L 1.2429,3.6979 L 1.1968,3.7501 L 1.1492,3.8001 L 1.1002,3.8479 L 1.0500,3.8935 L 0.9984,3.9367 L 0.9457,3.9777 L 0.8919,4.0163 L 0.8371,4.0525 L 0.7813,4.0863 L 0.7246,4.1176 L 0.6671,4.1466 L 0.6088,4.1730 L 0.5499,4.1970 L 0.4903,4.2185 L 0.4302,4.2375 L 0.3696,4.2540 L 0.3086,4.2680 L 0.2473,4.2794 L 0.1857,4.2883 L 0.1239,4.2947 L 0.0620,4.2985 L -0.0000,4.2998 L -0.0620,4.2985 L -0.1239,4.2947 L -0.1857,4.2883 L -0.2473,4.2794 L -0.3087,4.2680 L -0.3697,4.2540 L -0.4302,4.2375 L -0.4903,4.2185 L -0.5499,4.1970 L -0.6088,4.1730 L -0.6671,4.1466 L -0.7246,4.1176 L -0.7813,4.0863 L -0.8371,4.0525 L -0.8919,4.0163 L -0.9457,3.9777 L -0.9984,3.9367 L -1.0500,3.8935 L -1.1003,3.8479 L -1.1492,3.8001 L -1.1968,3.7501 L -1.2430,3.6979 L -1.2876,3.6435 L -1.3306,3.5870 L -1.3720,3.5285 L -1.4117,3.4680 L -1.4495,3.4056 L -1.4856,3.3412 L -1.5197,3.2750 L -1.5519,3.2071 L -1.5820,3.1374 L -1.6101,3.0661 L -1.6361,2.9932 L -1.6599,2.9188 L -1.6814,2.8430 L -1.7007,2.7658 L -1.7177,2.6873 L -1.7323,2.6076 L -1.7445,2.5268 L -1.7543,2.4449 L -1.7617,2.3620 L -1.7665,2.2782 L -1.7689,2.1936 L -1.7687,2.1082 L -1.7659,2.0222 L -1.7606,1.9356 L -1.7527,1.8484 L -1.7422,1.7608 L -1.7290,1.6728 L -1.7133,1.5845 L -1.6948,1.4959 L -1.6738,1.4070 L -1.6500,1.3179 L -1.6235,1.2286 L -1.5943,1.1391 L -1.5624,1.0494 L -1.5276,0.9593 L -1.4899,0.8689 L -1.4491,0.7778 L -1.4051,0.6858 L -1.3576,0.5924 L -1.3061,0.4969 L -1.2497,0.3977 L -1.1866,0.2922 L -1.1128,0.1742 L -1.0000,0.0000"/>
        <g id="arrows4">
          <use xlink:href="#arrow1" transform="translate(0.0000,4.2991) rotate(-179.54) scale(2.0)"/>
        </g>
      </g>
      <g id="fieldline5">
        <path d="M 1.0000,0.0000 L 1.0466,0.1874 L 1.0746,0.3093 L 1.0965,0.4150 L 1.1140,0.5119 L 1.1280,0.6030 L 1.1388,0.6900 L 1.1467,0.7739 L 1.1518,0.8552 L 1.1543,0.9343 L 1.1542,1.0113 L 1.1515,1.0866 L 1.1464,1.1601 L 1.1389,1.2319 L 1.1290,1.3021 L 1.1168,1.3705 L 1.1023,1.4373 L 1.0856,1.5023 L 1.0667,1.5656 L 1.0458,1.6271 L 1.0228,1.6868 L 0.9978,1.7445 L 0.9708,1.8003 L 0.9421,1.8542 L 0.9115,1.9059 L 0.8793,1.9556 L 0.8454,2.0031 L 0.8100,2.0484 L 0.7730,2.0916 L 0.7347,2.1324 L 0.6951,2.1709 L 0.6543,2.2071 L 0.6123,2.2409 L 0.5693,2.2723 L 0.5252,2.3013 L 0.4803,2.3278 L 0.4346,2.3518 L 0.3881,2.3734 L 0.3410,2.3924 L 0.2933,2.4089 L 0.2452,2.4230 L 0.1966,2.4344 L 0.1477,2.4434 L 0.0986,2.4497 L 0.0494,2.4536 L -0.0000,2.4549 L -0.0493,2.4536 L -0.0986,2.4497 L -0.1477,2.4434 L -0.1966,2.4344 L -0.2452,2.4230 L -0.2933,2.4090 L -0.3410,2.3924 L -0.3881,2.3734 L -0.4346,2.3518 L -0.4803,2.3278 L -0.5252,2.3012 L -0.5692,2.2723 L -0.6123,2.2409 L -0.6543,2.2071 L -0.6951,2.1709 L -0.7347,2.1324 L -0.7730,2.0916 L -0.8100,2.0485 L -0.8454,2.0031 L -0.8793,1.9556 L -0.9115,1.9059 L -0.9421,1.8542 L -0.9708,1.8004 L -0.9978,1.7445 L -1.0228,1.6868 L -1.0458,1.6271 L -1.0667,1.5656 L -1.0856,1.5024 L -1.1023,1.4373 L -1.1168,1.3705 L -1.1290,1.3021 L -1.1389,1.2319 L -1.1464,1.1601 L -1.1515,1.0866 L -1.1542,1.0114 L -1.1543,0.9343 L -1.1518,0.8552 L -1.1467,0.7739 L -1.1388,0.6900 L -1.1280,0.6030 L -1.1140,0.5119 L -1.0965,0.4150 L -1.0746,0.3093 L -1.0466,0.1874 L -1.0000,0.0000"/>
        <g id="arrows5">
          <use xlink:href="#arrow1" transform="translate(0.0000,2.4541) rotate(-179.43) scale(2.0)"/>
        </g>
      </g>
      <g id="fieldline6">
        <path d="M 1.0000,0.0000 L 0.9839,0.1847 L 0.9717,0.3001 L 0.9591,0.3971 L 0.9455,0.4834 L 0.9305,0.5627 L 0.9142,0.6365 L 0.8962,0.7059 L 0.8768,0.7716 L 0.8557,0.8340 L 0.8331,0.8933 L 0.8090,0.9497 L 0.7833,1.0035 L 0.7561,1.0546 L 0.7276,1.1032 L 0.6976,1.1492 L 0.6663,1.1928 L 0.6337,1.2338 L 0.5999,1.2725 L 0.5651,1.3086 L 0.5291,1.3422 L 0.4922,1.3734 L 0.4543,1.4021 L 0.4157,1.4284 L 0.3762,1.4521 L 0.3361,1.4734 L 0.2954,1.4921 L 0.2542,1.5084 L 0.2125,1.5221 L 0.1704,1.5334 L 0.1281,1.5421 L 0.0855,1.5484 L 0.0428,1.5521 L -0.0000,1.5534 L -0.0428,1.5521 L -0.0855,1.5484 L -0.1281,1.5421 L -0.1704,1.5334 L -0.2125,1.5221 L -0.2542,1.5084 L -0.2954,1.4921 L -0.3361,1.4734 L -0.3762,1.4521 L -0.4157,1.4284 L -0.4543,1.4021 L -0.4922,1.3734 L -0.5291,1.3422 L -0.5651,1.3086 L -0.6000,1.2724 L -0.6337,1.2338 L -0.6663,1.1928 L -0.6976,1.1492 L -0.7276,1.1032 L -0.7561,1.0546 L -0.7833,1.0035 L -0.8090,0.9497 L -0.8331,0.8933 L -0.8557,0.8340 L -0.8768,0.7716 L -0.8962,0.7059 L -0.9142,0.6365 L -0.9305,0.5627 L -0.9455,0.4835 L -0.9591,0.3971 L -0.9717,0.3001 L -0.9839,0.1847 L -1.0000,0.0000"/>
        <g id="arrows6">
          <use xlink:href="#arrow1" transform="translate(0.0000,1.5524) rotate(-179.05) scale(2.0)"/>
        </g>
      </g>
      <g id="fieldline7">
        <path d="M 1.0000,0.0000 L 0.9240,0.1713 L 0.8761,0.2738 L 0.8346,0.3572 L 0.7960,0.4294 L 0.7588,0.4937 L 0.7223,0.5520 L 0.6860,0.6052 L 0.6497,0.6541 L 0.6131,0.6991 L 0.5762,0.7406 L 0.5389,0.7788 L 0.5012,0.8138 L 0.4630,0.8458 L 0.4244,0.8749 L 0.3854,0.9012 L 0.3459,0.9247 L 0.3061,0.9455 L 0.2660,0.9636 L 0.2256,0.9790 L 0.1849,0.9919 L 0.1440,1.0021 L 0.1030,1.0098 L 0.0619,1.0149 L 0.0206,1.0175 L -0.0206,1.0175 L -0.0618,1.0149 L -0.1030,1.0098 L -0.1440,1.0021 L -0.1849,0.9919 L -0.2256,0.9790 L -0.2660,0.9636 L -0.3061,0.9455 L -0.3460,0.9247 L -0.3854,0.9012 L -0.4244,0.8749 L -0.4630,0.8458 L -0.5012,0.8138 L -0.5389,0.7788 L -0.5762,0.7406 L -0.6131,0.6991 L -0.6497,0.6541 L -0.6861,0.6052 L -0.7223,0.5520 L -0.7588,0.4937 L -0.7960,0.4294 L -0.8346,0.3572 L -0.8762,0.2738 L -0.9240,0.1713 L -1.0000,0.0000"/>
        <g id="arrows7">
          <use xlink:href="#arrow1" transform="translate(0.0000,1.0169) rotate(-178.63) scale(2.0)"/>
        </g>
      </g>
      <g id="fieldline8">
        <path d="M 1.0000,0.0000 L 0.8664,0.1440 L 0.7869,0.2265 L 0.7217,0.2910 L 0.6633,0.3453 L 0.6094,0.3921 L 0.5585,0.4332 L 0.5097,0.4693 L 0.4624,0.5014 L 0.4162,0.5296 L 0.3709,0.5545 L 0.3261,0.5761 L 0.2819,0.5947 L 0.2380,0.6105 L 0.1944,0.6235 L 0.1510,0.6338 L 0.1078,0.6415 L 0.0646,0.6466 L 0.0216,0.6492 L -0.0215,0.6492 L -0.0647,0.6466 L -0.1077,0.6415 L -0.1510,0.6338 L -0.1944,0.6235 L -0.2380,0.6105 L -0.2819,0.5947 L -0.3261,0.5761 L -0.3709,0.5545 L -0.4162,0.5296 L -0.4624,0.5014 L -0.5097,0.4693 L -0.5585,0.4332 L -0.6094,0.3921 L -0.6633,0.3453 L -0.7217,0.2910 L -0.7869,0.2265 L -0.8664,0.1440 L -1.0000,0.0000"/>
        <g id="arrows8">
          <use xlink:href="#arrow1" transform="translate(0.0000,0.6487) rotate(-178.69) scale(2.0)"/>
        </g>
      </g>
      <g id="fieldline9">
        <path d="M 1.0000,0.0000 L 0.8066,0.1038 L 0.6969,0.1604 L 0.6097,0.2028 L 0.5340,0.2372 L 0.4659,0.2655 L 0.4029,0.2891 L 0.3436,0.3088 L 0.2870,0.3250 L 0.2324,0.3382 L 0.1794,0.3484 L 0.1274,0.3560 L 0.0762,0.3610 L 0.0253,0.3635 L -0.0253,0.3635 L -0.0762,0.3610 L -0.1274,0.3560 L -0.1794,0.3485 L -0.2324,0.3382 L -0.2870,0.3250 L -0.3436,0.3088 L -0.4028,0.2891 L -0.4658,0.2655 L -0.5340,0.2372 L -0.6097,0.2028 L -0.6969,0.1604 L -0.8066,0.1038 L -1.0000,0.0000"/>
        <g id="arrows9">
          <use xlink:href="#arrow1" transform="translate(0.0000,0.3632) rotate(-179.06) scale(2.0)"/>
        </g>
      </g>
      <g id="fieldline10">
        <path d="M 1.0000,0.0000 L 0.7029,0.0488 L 0.5434,0.0729 L 0.4200,0.0894 L 0.3139,0.1011 L 0.2182,0.1093 L 0.1287,0.1145 L 0.0427,0.1171 L -0.0426,0.1171 L -0.1288,0.1145 L -0.2182,0.1093 L -0.3139,0.1011 L -0.4200,0.0894 L -0.5434,0.0729 L -0.7028,0.0488 L -1.0000,0.0000"/>
        <g id="arrows10">
          <use xlink:href="#arrow1" transform="translate(0.0000,0.1170) rotate(-179.84) scale(2.0)"/>
        </g>
      </g>
      <g id="fieldline11">
        <path d="M 1.0000,0.0000 L 0.7029,-0.0488 L 0.5434,-0.0729 L 0.4200,-0.0894 L 0.3139,-0.1011 L 0.2182,-0.1093 L 0.1287,-0.1145 L 0.0427,-0.1171 L -0.0426,-0.1171 L -0.1288,-0.1145 L -0.2182,-0.1093 L -0.3139,-0.1011 L -0.4200,-0.0894 L -0.5434,-0.0729 L -0.7028,-0.0488 L -1.0000,0.0000"/>
        <g id="arrows11">
          <use xlink:href="#arrow1" transform="translate(0.0000,-0.1170) rotate(179.84) scale(2.0)"/>
        </g>
      </g>
      <g id="fieldline12">
        <path d="M 1.0000,0.0000 L 0.8066,-0.1038 L 0.6969,-0.1604 L 0.6097,-0.2028 L 0.5340,-0.2372 L 0.4659,-0.2655 L 0.4029,-0.2891 L 0.3436,-0.3088 L 0.2870,-0.3250 L 0.2324,-0.3382 L 0.1794,-0.3484 L 0.1274,-0.3560 L 0.0762,-0.3610 L 0.0253,-0.3635 L -0.0253,-0.3635 L -0.0762,-0.3610 L -0.1274,-0.3560 L -0.1794,-0.3485 L -0.2324,-0.3382 L -0.2870,-0.3250 L -0.3436,-0.3088 L -0.4028,-0.2891 L -0.4658,-0.2655 L -0.5340,-0.2372 L -0.6097,-0.2028 L -0.6969,-0.1604 L -0.8066,-0.1038 L -1.0000,0.0000"/>
        <g id="arrows12">
          <use xlink:href="#arrow1" transform="translate(0.0000,-0.3632) rotate(179.06) scale(2.0)"/>
        </g>
      </g>
      <g id="fieldline13">
        <path d="M 1.0000,0.0000 L 0.8664,-0.1440 L 0.7869,-0.2265 L 0.7217,-0.2910 L 0.6633,-0.3453 L 0.6094,-0.3921 L 0.5585,-0.4332 L 0.5097,-0.4693 L 0.4624,-0.5014 L 0.4162,-0.5296 L 0.3709,-0.5545 L 0.3261,-0.5761 L 0.2819,-0.5947 L 0.2380,-0.6105 L 0.1944,-0.6235 L 0.1510,-0.6338 L 0.1078,-0.6415 L 0.0646,-0.6466 L 0.0216,-0.6492 L -0.0215,-0.6492 L -0.0647,-0.6466 L -0.1077,-0.6415 L -0.1510,-0.6338 L -0.1944,-0.6235 L -0.2380,-0.6105 L -0.2819,-0.5947 L -0.3261,-0.5761 L -0.3709,-0.5545 L -0.4162,-0.5296 L -0.4624,-0.5014 L -0.5097,-0.4693 L -0.5585,-0.4332 L -0.6094,-0.3921 L -0.6633,-0.3453 L -0.7217,-0.2910 L -0.7869,-0.2265 L -0.8664,-0.1440 L -1.0000,0.0000"/>
        <g id="arrows13">
          <use xlink:href="#arrow1" transform="translate(0.0000,-0.6487) rotate(178.69) scale(2.0)"/>
        </g>
      </g>
      <g id="fieldline14">
        <path d="M 1.0000,0.0000 L 0.9240,-0.1713 L 0.8761,-0.2738 L 0.8346,-0.3572 L 0.7960,-0.4294 L 0.7588,-0.4937 L 0.7223,-0.5520 L 0.6860,-0.6052 L 0.6497,-0.6541 L 0.6131,-0.6991 L 0.5762,-0.7406 L 0.5389,-0.7788 L 0.5012,-0.8138 L 0.4630,-0.8458 L 0.4244,-0.8749 L 0.3854,-0.9012 L 0.3459,-0.9247 L 0.3061,-0.9455 L 0.2660,-0.9636 L 0.2256,-0.9790 L 0.1849,-0.9919 L 0.1440,-1.0021 L 0.1030,-1.0098 L 0.0619,-1.0149 L 0.0206,-1.0175 L -0.0206,-1.0175 L -0.0618,-1.0149 L -0.1030,-1.0098 L -0.1440,-1.0021 L -0.1849,-0.9919 L -0.2256,-0.9790 L -0.2660,-0.9636 L -0.3061,-0.9455 L -0.3460,-0.9247 L -0.3854,-0.9012 L -0.4244,-0.8749 L -0.4630,-0.8458 L -0.5012,-0.8138 L -0.5389,-0.7788 L -0.5762,-0.7406 L -0.6131,-0.6991 L -0.6497,-0.6541 L -0.6861,-0.6052 L -0.7223,-0.5520 L -0.7588,-0.4937 L -0.7960,-0.4294 L -0.8346,-0.3572 L -0.8762,-0.2738 L -0.9240,-0.1713 L -1.0000,0.0000"/>
        <g id="arrows14">
          <use xlink:href="#arrow1" transform="translate(0.0000,-1.0169) rotate(178.63) scale(2.0)"/>
        </g>
      </g>
      <g id="fieldline15">
        <path d="M 1.0000,0.0000 L 0.9839,-0.1847 L 0.9717,-0.3001 L 0.9591,-0.3971 L 0.9455,-0.4834 L 0.9305,-0.5627 L 0.9142,-0.6365 L 0.8962,-0.7059 L 0.8768,-0.7716 L 0.8557,-0.8340 L 0.8331,-0.8933 L 0.8090,-0.9497 L 0.7833,-1.0035 L 0.7561,-1.0546 L 0.7276,-1.1032 L 0.6976,-1.1492 L 0.6663,-1.1928 L 0.6337,-1.2338 L 0.5999,-1.2725 L 0.5651,-1.3086 L 0.5291,-1.3422 L 0.4922,-1.3734 L 0.4543,-1.4021 L 0.4157,-1.4284 L 0.3762,-1.4521 L 0.3361,-1.4734 L 0.2954,-1.4921 L 0.2542,-1.5084 L 0.2125,-1.5221 L 0.1704,-1.5334 L 0.1281,-1.5421 L 0.0855,-1.5484 L 0.0428,-1.5521 L -0.0000,-1.5534 L -0.0428,-1.5521 L -0.0855,-1.5484 L -0.1281,-1.5421 L -0.1704,-1.5334 L -0.2125,-1.5221 L -0.2542,-1.5084 L -0.2954,-1.4921 L -0.3361,-1.4734 L -0.3762,-1.4521 L -0.4157,-1.4284 L -0.4543,-1.4021 L -0.4922,-1.3734 L -0.5291,-1.3422 L -0.5651,-1.3086 L -0.6000,-1.2724 L -0.6337,-1.2338 L -0.6663,-1.1928 L -0.6976,-1.1492 L -0.7276,-1.1032 L -0.7561,-1.0546 L -0.7833,-1.0035 L -0.8090,-0.9497 L -0.8331,-0.8933 L -0.8557,-0.8340 L -0.8768,-0.7716 L -0.8962,-0.7059 L -0.9142,-0.6365 L -0.9305,-0.5627 L -0.9455,-0.4835 L -0.9591,-0.3971 L -0.9717,-0.3001 L -0.9839,-0.1847 L -1.0000,0.0000"/>
        <g id="arrows15">
          <use xlink:href="#arrow1" transform="translate(0.0000,-1.5524) rotate(179.05) scale(2.0)"/>
        </g>
      </g>
      <g id="fieldline16">
        <path d="M 1.0000,0.0000 L 1.0466,-0.1874 L 1.0746,-0.3093 L 1.0965,-0.4150 L 1.1140,-0.5119 L 1.1280,-0.6030 L 1.1388,-0.6900 L 1.1467,-0.7739 L 1.1518,-0.8552 L 1.1543,-0.9343 L 1.1542,-1.0113 L 1.1515,-1.0866 L 1.1464,-1.1601 L 1.1389,-1.2319 L 1.1290,-1.3021 L 1.1168,-1.3705 L 1.1023,-1.4373 L 1.0856,-1.5023 L 1.0667,-1.5656 L 1.0458,-1.6271 L 1.0228,-1.6868 L 0.9978,-1.7445 L 0.9708,-1.8003 L 0.9421,-1.8542 L 0.9115,-1.9059 L 0.8793,-1.9556 L 0.8454,-2.0031 L 0.8100,-2.0484 L 0.7730,-2.0916 L 0.7347,-2.1324 L 0.6951,-2.1709 L 0.6543,-2.2071 L 0.6123,-2.2409 L 0.5693,-2.2723 L 0.5252,-2.3013 L 0.4803,-2.3278 L 0.4346,-2.3518 L 0.3881,-2.3734 L 0.3410,-2.3924 L 0.2933,-2.4089 L 0.2452,-2.4230 L 0.1966,-2.4344 L 0.1477,-2.4434 L 0.0986,-2.4497 L 0.0494,-2.4536 L -0.0000,-2.4549 L -0.0493,-2.4536 L -0.0986,-2.4497 L -0.1477,-2.4434 L -0.1966,-2.4344 L -0.2452,-2.4230 L -0.2933,-2.4090 L -0.3410,-2.3924 L -0.3881,-2.3734 L -0.4346,-2.3518 L -0.4803,-2.3278 L -0.5252,-2.3012 L -0.5692,-2.2723 L -0.6123,-2.2409 L -0.6543,-2.2071 L -0.6951,-2.1709 L -0.7347,-2.1324 L -0.7730,-2.0916 L -0.8100,-2.0485 L -0.8454,-2.0031 L -0.8793,-1.9556 L -0.9115,-1.9059 L -0.9421,-1.8542 L -0.9708,-1.8004 L -0.9978,-1.7445 L -1.0228,-1.6868 L -1.0458,-1.6271 L -1.0667,-1.5656 L -1.0856,-1.5024 L -1.1023,-1.4373 L -1.1168,-1.3705 L -1.1290,-1.3021 L -1.1389,-1.2319 L -1.1464,-1.1601 L -1.1515,-1.0866 L -1.1542,-1.0114 L -1.1543,-0.9343 L -1.1518,-0.8552 L -1.1467,-0.7739 L -1.1388,-0.6900 L -1.1280,-0.6030 L -1.1140,-0.5119 L -1.0965,-0.4150 L -1.0746,-0.3093 L -1.0466,-0.1874 L -1.0000,0.0000"/>
        <g id="arrows16">
          <use xlink:href="#arrow1" transform="translate(0.0000,-2.4541) rotate(179.43) scale(2.0)"/>
        </g>
      </g>
      <g id="fieldline17">
        <path d="M 1.0000,0.0000 L 1.1128,-0.1742 L 1.1866,-0.2922 L 1.2497,-0.3977 L 1.3061,-0.4969 L 1.3576,-0.5924 L 1.4051,-0.6858 L 1.4491,-0.7778 L 1.4899,-0.8689 L 1.5276,-0.9594 L 1.5624,-1.0494 L 1.5943,-1.1391 L 1.6235,-1.2286 L 1.6500,-1.3179 L 1.6738,-1.4070 L 1.6949,-1.4959 L 1.7133,-1.5845 L 1.7291,-1.6728 L 1.7422,-1.7609 L 1.7527,-1.8485 L 1.7606,-1.9356 L 1.7659,-2.0222 L 1.7687,-2.1083 L 1.7689,-2.1936 L 1.7665,-2.2782 L 1.7617,-2.3620 L 1.7543,-2.4449 L 1.7445,-2.5268 L 1.7323,-2.6076 L 1.7177,-2.6873 L 1.7007,-2.7658 L 1.6814,-2.8430 L 1.6599,-2.9188 L 1.6361,-2.9932 L 1.6101,-3.0661 L 1.5820,-3.1374 L 1.5519,-3.2071 L 1.5197,-3.2751 L 1.4856,-3.3412 L 1.4495,-3.4056 L 1.4116,-3.4680 L 1.3720,-3.5285 L 1.3306,-3.5871 L 1.2876,-3.6435 L 1.2429,-3.6979 L 1.1968,-3.7501 L 1.1492,-3.8001 L 1.1002,-3.8479 L 1.0500,-3.8935 L 0.9984,-3.9367 L 0.9457,-3.9777 L 0.8919,-4.0163 L 0.8371,-4.0525 L 0.7813,-4.0863 L 0.7246,-4.1176 L 0.6671,-4.1466 L 0.6088,-4.1730 L 0.5499,-4.1970 L 0.4903,-4.2185 L 0.4302,-4.2375 L 0.3696,-4.2540 L 0.3086,-4.2680 L 0.2473,-4.2794 L 0.1857,-4.2883 L 0.1239,-4.2947 L 0.0620,-4.2985 L -0.0000,-4.2998 L -0.0620,-4.2985 L -0.1239,-4.2947 L -0.1857,-4.2883 L -0.2473,-4.2794 L -0.3087,-4.2680 L -0.3697,-4.2540 L -0.4302,-4.2375 L -0.4903,-4.2185 L -0.5499,-4.1970 L -0.6088,-4.1730 L -0.6671,-4.1466 L -0.7246,-4.1176 L -0.7813,-4.0863 L -0.8371,-4.0525 L -0.8919,-4.0163 L -0.9457,-3.9777 L -0.9984,-3.9367 L -1.0500,-3.8935 L -1.1003,-3.8479 L -1.1492,-3.8001 L -1.1968,-3.7501 L -1.2430,-3.6979 L -1.2876,-3.6435 L -1.3306,-3.5870 L -1.3720,-3.5285 L -1.4117,-3.4680 L -1.4495,-3.4056 L -1.4856,-3.3412 L -1.5197,-3.2750 L -1.5519,-3.2071 L -1.5820,-3.1374 L -1.6101,-3.0661 L -1.6361,-2.9932 L -1.6599,-2.9188 L -1.6814,-2.8430 L -1.7007,-2.7658 L -1.7177,-2.6873 L -1.7323,-2.6076 L -1.7445,-2.5268 L -1.7543,-2.4449 L -1.7617,-2.3620 L -1.7665,-2.2782 L -1.7689,-2.1936 L -1.7687,-2.1082 L -1.7659,-2.0222 L -1.7606,-1.9356 L -1.7527,-1.8484 L -1.7422,-1.7608 L -1.7290,-1.6728 L -1.7133,-1.5845 L -1.6948,-1.4959 L -1.6738,-1.4070 L -1.6500,-1.3179 L -1.6235,-1.2286 L -1.5943,-1.1391 L -1.5624,-1.0494 L -1.5276,-0.9593 L -1.4899,-0.8689 L -1.4491,-0.7778 L -1.4051,-0.6858 L -1.3576,-0.5924 L -1.3061,-0.4969 L -1.2497,-0.3977 L -1.1866,-0.2922 L -1.1128,-0.1742 L -1.0000,0.0000"/>
        <g id="arrows17">
          <use xlink:href="#arrow1" transform="translate(0.0000,-4.2991) rotate(179.54) scale(2.0)"/>
        </g>
      </g>
      <g id="fieldline18">
        <path d="M 1.0000,0.0000 L 1.1845,-0.1446 L 1.3120,-0.2475 L 1.4248,-0.3415 L 1.5299,-0.4323 L 1.6299,-0.5220 L 1.7261,-0.6115 L 1.8191,-0.7014 L 1.9094,-0.7923 L 1.9973,-0.8842 L 2.0830,-0.9773 L 2.1665,-1.0718 L 2.2479,-1.1677 L 2.3272,-1.2651 L 2.4045,-1.3638 L 2.4798,-1.4640 L 2.5530,-1.5656 L 2.6242,-1.6687 L 2.6932,-1.7731 L 2.7601,-1.8788 L 2.8249,-1.9858 L 2.8876,-2.0940 L 2.9480,-2.2034 L 3.0062,-2.3140 L 3.0622,-2.4256 L 3.1158,-2.5382 L 3.1672,-2.6518 L 3.2162,-2.7663 L 3.2629,-2.8816 L 3.3072,-2.9976 L 3.3491,-3.1144 L 3.3885,-3.2318 L 3.4255,-3.3498 L 3.4601,-3.4682 L 3.4922,-3.5871 L 3.5218,-3.7063 L 3.5489,-3.8258 L 3.5735,-3.9456 L 3.5956,-4.0655 L 3.6152,-4.1854 L 3.6322,-4.3054 L 3.6467,-4.4253 L 3.6587,-4.5451 L 3.6682,-4.6647 L 3.6752,-4.7840 L 3.6796,-4.9030 L 3.6816,-5.0216 L 3.6810,-5.1397 L 3.6779,-5.2573 L 3.6724,-5.3743 L 3.6644,-5.4906 L 3.6540,-5.6062 L 3.6411,-5.7210 L 3.6259,-5.8350 L 3.6082,-5.9480 L 3.5882,-6.0600 L 3.5658,-6.1710 L 3.5412,-6.2809 L 3.5142,-6.3896 L 3.4850,-6.4971 L 3.4535,-6.6034 L 3.4198,-6.7083 L 3.3840,-6.8118 L 3.3460,-6.9139 L 3.3059,-7.0146 L 3.2638,-7.1136 L 3.2196,-7.2111 L 3.1735,-7.3070 L 3.1253,-7.4012 L 3.0753,-7.4937 L 3.0234,-7.5844 L 2.9697,-7.6733 L 2.9141,-7.7603 L 2.8569,-7.8455 L 2.7979,-7.9287 L 2.7372,-8.0100 M -2.7372,-8.0100 L -2.7979,-7.9287 L -2.8569,-7.8455 L -2.9141,-7.7603 L -2.9697,-7.6733 L -3.0234,-7.5844 L -3.0753,-7.4937 L -3.1253,-7.4012 L -3.1735,-7.3070 L -3.2196,-7.2111 L -3.2638,-7.1136 L -3.3059,-7.0146 L -3.3460,-6.9139 L -3.3840,-6.8118 L -3.4198,-6.7083 L -3.4535,-6.6034 L -3.4850,-6.4971 L -3.5142,-6.3896 L -3.5412,-6.2809 L -3.5658,-6.1710 L -3.5882,-6.0600 L -3.6082,-5.9480 L -3.6259,-5.8350 L -3.6411,-5.7210 L -3.6540,-5.6062 L -3.6644,-5.4906 L -3.6724,-5.3743 L -3.6779,-5.2573 L -3.6810,-5.1397 L -3.6816,-5.0216 L -3.6796,-4.9030 L -3.6752,-4.7840 L -3.6682,-4.6647 L -3.6587,-4.5451 L -3.6467,-4.4253 L -3.6322,-4.3054 L -3.6152,-4.1854 L -3.5956,-4.0655 L -3.5735,-3.9456 L -3.5489,-3.8258 L -3.5218,-3.7063 L -3.4922,-3.5871 L -3.4601,-3.4682 L -3.4255,-3.3498 L -3.3885,-3.2318 L -3.3491,-3.1144 L -3.3072,-2.9976 L -3.2629,-2.8816 L -3.2162,-2.7663 L -3.1672,-2.6518 L -3.1158,-2.5382 L -3.0622,-2.4256 L -3.0062,-2.3140 L -2.9480,-2.2034 L -2.8876,-2.0940 L -2.8249,-1.9858 L -2.7601,-1.8788 L -2.6932,-1.7731 L -2.6242,-1.6687 L -2.5530,-1.5657 L -2.4798,-1.4640 L -2.4046,-1.3638 L -2.3272,-1.2651 L -2.2479,-1.1677 L -2.1665,-1.0718 L -2.0830,-0.9773 L -1.9973,-0.8842 L -1.9094,-0.7923 L -1.8191,-0.7014 L -1.7261,-0.6115 L -1.6299,-0.5220 L -1.5299,-0.4323 L -1.4248,-0.3415 L -1.3120,-0.2475 L -1.1845,-0.1446 L -1.0000,0.0000"/>
        <g id="arrows18">
          <use xlink:href="#arrow1" transform="translate(3.5145,-3.6775) rotate(-76.38) scale(2.0)"/>
          <use xlink:href="#arrow1" transform="translate(-3.5146,-3.6775) rotate(76.06) scale(2.0)"/>
        </g>
      </g>
      <g id="fieldline19">
        <path d="M 1.0000,0.0000 L 1.2835,-0.0982 L 1.4898,-0.1721 L 1.6792,-0.2426 L 1.8613,-0.3129 L 2.0397,-0.3845 L 2.2160,-0.4580 L 2.3911,-0.5336 L 2.5656,-0.6118 L 2.7399,-0.6925 L 2.9140,-0.7760 L 3.0881,-0.8623 L 3.2622,-0.9514 L 3.4365,-1.0434 L 3.6108,-1.1382 L 3.7851,-1.2359 L 3.9595,-1.3366 L 4.1339,-1.4401 L 4.3081,-1.5465 L 4.4823,-1.6557 L 4.6562,-1.7679 L 4.8300,-1.8828 L 5.0034,-2.0006 L 5.1765,-2.1211 L 5.3491,-2.2445 L 5.5213,-2.3706 L 5.6930,-2.4994 L 5.8641,-2.6309 L 6.0345,-2.7651 L 6.2042,-2.9020 L 6.3732,-3.0414 L 6.5414,-3.1835 L 6.7087,-3.3281 L 6.8751,-3.4753 L 7.0405,-3.6249 L 7.2049,-3.7770 L 7.3682,-3.9315 L 7.5305,-4.0885 L 7.6915,-4.2478 L 7.8514,-4.4094 L 8.0100,-4.5733 M -8.0100,-4.5733 L -7.8514,-4.4094 L -7.6915,-4.2478 L -7.5305,-4.0885 L -7.3682,-3.9315 L -7.2049,-3.7770 L -7.0405,-3.6249 L -6.8751,-3.4753 L -6.7087,-3.3281 L -6.5414,-3.1835 L -6.3732,-3.0415 L -6.2042,-2.9020 L -6.0345,-2.7651 L -5.8641,-2.6309 L -5.6930,-2.4994 L -5.5213,-2.3706 L -5.3491,-2.2445 L -5.1765,-2.1211 L -5.0034,-2.0006 L -4.8300,-1.8828 L -4.6562,-1.7679 L -4.4823,-1.6557 L -4.3081,-1.5465 L -4.1339,-1.4401 L -3.9595,-1.3366 L -3.7852,-1.2360 L -3.6108,-1.1382 L -3.4365,-1.0434 L -3.2623,-0.9514 L -3.0881,-0.8623 L -2.9140,-0.7760 L -2.7399,-0.6925 L -2.5656,-0.6118 L -2.3911,-0.5336 L -2.2160,-0.4579 L -2.0397,-0.3845 L -1.8613,-0.3129 L -1.6792,-0.2426 L -1.4898,-0.1721 L -1.2835,-0.0982 L -1.0000,0.0000"/>
        <g id="arrows19">
          <use xlink:href="#arrow1" transform="translate(4.7851,-1.8531) rotate(-33.49) scale(2.0)"/>
          <use xlink:href="#arrow1" transform="translate(-4.7851,-1.8531) rotate(33.49) scale(2.0)"/>
        </g>
      </g>
      <g id="fieldline20">
        <path d="M 1.0000,0.0000 L 8.0100,-0.0000"/>
        <g id="arrows20">
          <use xlink:href="#arrow1" transform="translate(4.5050,-0.0000) rotate(-0.00) scale(2.0)"/>
        </g>
      </g>
    </g>
    <g id="symbols">
      <g id="charge1" transform="translate(1.0,0.0) scale(0.01,0.01)">
        <circle style="fill:#ff0000; stroke:none" cx="0" cy="0" r="14"/>
        <circle cx="0" cy="0" r="14" style="fill:url(#white_spot); stroke:#000000; stroke-width:2"/>
        <path d="M 2,2 V 8 H -2 V 2 H -8 V -2 H -2 V -8 H 2 V -2 H 8 V 2 H 2 Z" style="fill:#000000; stroke:none"/>
      </g>
      <g id="charge2" transform="translate(-1.0,0.0) scale(0.01,0.01)">
        <circle style="fill:#0000ff; stroke:none" cx="0" cy="0" r="14"/>
        <circle cx="0" cy="0" r="14" style="fill:url(#white_spot); stroke:#000000; stroke-width:2"/>
        <path d="M 8,2 H -8 V -2 H 8 V 2 Z" style="fill:#000000; stroke:none"/>
      </g>
    </g>
  </g>
</svg>
